<svg xmlns="http://www.w3.org/2000/svg" viewBox="0 0 600 320" font-family="'Segoe UI', system-ui, -apple-system, sans-serif">
  <defs>
    <filter id="s" x="-4%" y="-4%" width="108%" height="108%">
      <feDropShadow dx="0.5" dy="1" stdDeviation="1.5" flood-color="#000" flood-opacity="0.08"/>
    </filter>
    <marker id="a1" markerWidth="5" markerHeight="4" refX="5" refY="2" orient="auto">
      <polygon points="0 0, 5 2, 0 4" fill="#1C4587"/>
    </marker>
    <marker id="a2" markerWidth="5" markerHeight="4" refX="5" refY="2" orient="auto">
      <polygon points="0 0, 5 2, 0 4" fill="#198754"/>
    </marker>
    <marker id="a3" markerWidth="5" markerHeight="4" refX="5" refY="2" orient="auto">
      <polygon points="0 0, 5 2, 0 4" fill="#777"/>
    </marker>
  </defs>

  <!-- Background -->
  <rect width="600" height="320" fill="#FAFBFD" rx="6"/>

  <!-- Title -->
  <rect x="0" y="0" width="600" height="28" rx="6" fill="#1C4587"/>
  <rect x="0" y="14" width="600" height="14" fill="#1C4587"/>
  <text x="300" y="19" text-anchor="middle" fill="white" font-size="11" font-weight="600">SIROS ID — Architecture Overview</text>

  <!-- ===== ROW 1: User, CM, Trust, Registry (y=40) ===== -->

  <!-- User -->
  <rect x="15" y="42" width="80" height="50" rx="5" fill="#E8EEF7" stroke="#1C4587" stroke-width="1" filter="url(#s)"/>
  <text x="55" y="62" text-anchor="middle" fill="#1C4587" font-size="8" font-weight="700">User</text>
  <text x="55" y="73" text-anchor="middle" fill="#1C4587" font-size="7">Browser + Passkey</text>

  <!-- Credential Manager -->
  <rect x="120" y="38" width="145" height="58" rx="5" fill="#E8EEF7" stroke="#1C4587" stroke-width="1" filter="url(#s)"/>
  <text x="192" y="52" text-anchor="middle" fill="#1C4587" font-size="8" font-weight="700">Credential Manager</text>
  <rect x="130" y="60" width="55" height="20" rx="3" fill="white" stroke="#1C4587" stroke-width="0.8"/>
  <text x="157" y="73" text-anchor="middle" fill="#1C4587" font-size="6">Frontend</text>
  <rect x="192" y="60" width="55" height="20" rx="3" fill="white" stroke="#1C4587" stroke-width="0.8"/>
  <text x="219" y="73" text-anchor="middle" fill="#1C4587" font-size="6">Backend</text>
  <text x="192" y="91" text-anchor="middle" fill="#888" font-size="5.5">MongoDB · Redis</text>

  <!-- Trust Services -->
  <rect x="290" y="38" width="130" height="58" rx="5" fill="#E6F4F1" stroke="#198754" stroke-width="1" filter="url(#s)"/>
  <text x="355" y="52" text-anchor="middle" fill="#0F5132" font-size="8" font-weight="700">Trust Services</text>
  <rect x="300" y="60" width="110" height="20" rx="3" fill="white" stroke="#198754" stroke-width="0.8"/>
  <text x="355" y="73" text-anchor="middle" fill="#0F5132" font-size="7" font-weight="600">go-trust (AuthZEN)</text>
  <text x="355" y="91" text-anchor="middle" fill="#888" font-size="5.5">ETSI · OIDF · DID</text>

  <!-- Registry -->
  <rect x="445" y="42" width="140" height="50" rx="5" fill="#FFF3E0" stroke="#C75A11" stroke-width="1" filter="url(#s)"/>
  <text x="515" y="62" text-anchor="middle" fill="#7C3A00" font-size="8" font-weight="700">Credential Registry</text>
  <text x="515" y="75" text-anchor="middle" fill="#7C3A00" font-size="6">registry.siros.org</text>
  <text x="515" y="85" text-anchor="middle" fill="#888" font-size="5.5">VCTM · JSON API</text>

  <!-- Row 1 arrows -->
  <line x1="95" y1="67" x2="120" y2="67" stroke="#1C4587" stroke-width="1.5" marker-end="url(#a1)"/>
  <line x1="265" y1="67" x2="290" y2="67" stroke="#198754" stroke-width="1.5" stroke-dasharray="4,2" marker-end="url(#a2)"/>
  <text x="277" y="62" text-anchor="middle" fill="#198754" font-size="5">AuthZEN</text>

  <!-- ===== ROW 2: Issuer, Verifier (y=130) ===== -->

  <!-- Issuer -->
  <rect x="60" y="130" width="175" height="48" rx="5" fill="#D4E2F4" stroke="#1C4587" stroke-width="1" filter="url(#s)"/>
  <text x="147" y="148" text-anchor="middle" fill="#1C4587" font-size="8" font-weight="700">Credential Issuer</text>
  <text x="147" y="160" text-anchor="middle" fill="#666" font-size="6.5">OID4VCI · SD-JWT · mDL · HSM</text>
  <text x="147" y="172" text-anchor="middle" fill="#666" font-size="5.5">Token Status Lists · ES256 · EdDSA</text>

  <!-- Verifier -->
  <rect x="265" y="130" width="175" height="48" rx="5" fill="#D4E2F4" stroke="#1C4587" stroke-width="1" filter="url(#s)"/>
  <text x="352" y="148" text-anchor="middle" fill="#1C4587" font-size="8" font-weight="700">Credential Verifier</text>
  <text x="352" y="160" text-anchor="middle" fill="#666" font-size="6.5">OID4VP · OIDC · DC API</text>
  <text x="352" y="172" text-anchor="middle" fill="#666" font-size="5.5">Presentation Exchange · Selective Disclosure</text>

  <!-- Row 1→2 arrows: CM down to Issuer and Verifier -->
  <line x1="160" y1="96" x2="135" y2="130" stroke="#1C4587" stroke-width="1.5" marker-end="url(#a1)"/>
  <text x="130" y="116" fill="#1C4587" font-size="5">OID4VCI</text>

  <line x1="225" y1="96" x2="320" y2="130" stroke="#1C4587" stroke-width="1.5" marker-end="url(#a1)"/>
  <text x="285" y="110" fill="#1C4587" font-size="5">OID4VP</text>

  <!-- ===== ROW 3: Customer (y=212) ===== -->

  <!-- Customer Infrastructure -->
  <rect x="60" y="212" width="380" height="42" rx="5" fill="#F5F5F5" stroke="#888" stroke-width="1" filter="url(#s)"/>
  <text x="250" y="230" text-anchor="middle" fill="#444" font-size="8" font-weight="700">Customer Infrastructure</text>
  <text x="250" y="243" text-anchor="middle" fill="#666" font-size="6.5">Identity Provider (SAML / OIDC) · Applications (RP) · Data Sources</text>

  <!-- Row 2→3 arrows: Issuer/Verifier down to Customer -->
  <line x1="147" y1="178" x2="147" y2="212" stroke="#777" stroke-width="1.2" marker-end="url(#a3)"/>
  <text x="125" y="198" fill="#777" font-size="5">Auth</text>

  <line x1="352" y1="178" x2="352" y2="212" stroke="#777" stroke-width="1.2" marker-end="url(#a3)"/>
  <text x="365" y="198" fill="#777" font-size="5">OIDC</text>

  <!-- ===== FOOTER ===== -->
  <text x="300" y="278" text-anchor="middle" fill="#1C4587" font-size="7.5" font-weight="500">Hosted at id.siros.org  ·  Self-Hosted on your premises</text>
  <text x="300" y="292" text-anchor="middle" fill="#888" font-size="7" font-style="italic">Click for full architecture diagram →</text>
</svg>