<svg xmlns="http://www.w3.org/2000/svg" xmlns:xlink="http://www.w3.org/1999/xlink" xmlns:lucid="lucid" width="2773.92" height="1029.27"><g transform="translate(215.62568128130692 -1217.4735397108625)" lucid:page-tab-id="0_0"><path d="M-214.63 1315.87a6 6 0 0 1 6-6H2551.3a6 6 0 0 1 6 6v923.87a6 6 0 0 1-6 6H-208.64a6 6 0 0 1-6-6z" stroke="#3a414a" stroke-width="2" fill="#fff"/><path d="M-214.63 1223.47a6 6 0 0 1 6-6H563.7a6 6 0 0 1 6 6v68.4a6 6 0 0 1-6 6h-772.33a6 6 0 0 1-6-6z" fill="#3a414a"/><use xlink:href="#a" transform="matrix(1,0,0,1,-198.62568128130692,1233.4735397108625) translate(0 39.05078125)"/><use xlink:href="#b" transform="matrix(1,0,0,1,-198.62568128130692,1233.4735397108625) translate(204.55078125 39.05078125)"/><use xlink:href="#c" transform="matrix(1,0,0,1,-198.62568128130692,1233.4735397108625) translate(430.64453125 39.05078125)"/><use xlink:href="#d" transform="matrix(1,0,0,1,-198.62568128130692,1233.4735397108625) translate(594.21875 39.05078125)"/><path d="M-134.63 1395.87a6 6 0 0 1 6-6h346.97a6 6 0 0 1 6 6v446.8a6 6 0 0 1-6 6h-346.97a6 6 0 0 1-6-6z" stroke="#fc9432" stroke-width="2" fill="#dfe3e8"/><path d="M-134.63 1346.36a6 6 0 0 1 6-6h43.67a6 6 0 0 1 6 6v25.5a6 6 0 0 1-6 6h-43.67a6 6 0 0 1-6-6z" fill="#fc9432"/><use xlink:href="#e" transform="matrix(1,0,0,1,-126.62568128130692,1348.361560544196) translate(0 17.46701388888889)"/><path d="M264.34 1395.87a6 6 0 0 1 6-6h1511.48a6 6 0 0 1 6 6v446.8a6 6 0 0 1-6 6H270.34a6 6 0 0 1-6-6z" stroke="#00c2a8" stroke-width="2" fill="#dfe3e8"/><path d="M264.34 1346.36a6 6 0 0 1 6-6H426.2a6 6 0 0 1 6 6v25.5a6 6 0 0 1-6 6H270.33a6 6 0 0 1-6-6z" fill="#00c2a8"/><use xlink:href="#f" transform="matrix(1,0,0,1,272.33699232980416,1348.3615605441958) translate(0 17.46701388888889)"/><use xlink:href="#g" transform="matrix(1,0,0,1,272.33699232980416,1348.3615605441958) translate(90.91145833333334 17.46701388888889)"/><path d="M1827.82 1395.87a6 6 0 0 1 6-6h637.47a6 6 0 0 1 6 6v446.8a6 6 0 0 1-6 6H1833.8a6 6 0 0 1-6-6z" stroke="#fcce14" stroke-width="2" fill="#dfe3e8"/><path d="M1827.82 1346.36a6 6 0 0 1 6-6h154.34a6 6 0 0 1 6 6v25.5a6 6 0 0 1-6 6h-154.34a6 6 0 0 1-6-6z" fill="#fcce14"/><use xlink:href="#h" transform="matrix(1,0,0,1,1835.823320454804,1348.3615605441958) translate(0 17.46701388888889)"/><use xlink:href="#i" transform="matrix(1,0,0,1,1835.823320454804,1348.3615605441958) translate(43.567708333333336 17.46701388888889)"/><path d="M-54.63 1550.35a6 6 0 0 1 6-6h186.97a6 6 0 0 1 6 6v137.84a6 6 0 0 1-6 6H-48.63a6 6 0 0 1-6-6z" stroke="#1071e5" stroke-width="4" fill="#cfe4ff"/><use xlink:href="#j" transform="matrix(1,0,0,1,-42.62568128130694,1556.3521268030909) translate(19.42274305555557 53.02777777777778)"/><use xlink:href="#k" transform="matrix(1,0,0,1,-42.62568128130694,1556.3521268030909) translate(91.34114583333334 53.02777777777778)"/><use xlink:href="#l" transform="matrix(1,0,0,1,-42.62568128130694,1556.3521268030909) translate(2.8266059027777857 85.29340277777777)"/><use xlink:href="#m" transform="matrix(1,0,0,1,-42.62568128130694,1556.3521268030909) translate(53.05447048611112 85.29340277777777)"/><path d="M344.34 1508.94a6 6 0 0 1 6-6h296.93a6 6 0 0 1 6 6v220.66a6 6 0 0 1-6 6H350.34a6 6 0 0 1-6-6z" stroke="#1071e5" stroke-width="4" fill="#cfe4ff"/><use xlink:href="#n" transform="matrix(1,0,0,1,356.33699232980416,1514.9429966804914) translate(76.53862847222224 93.37152777777777)"/><use xlink:href="#o" transform="matrix(1,0,0,1,356.33699232980416,1514.9429966804914) translate(99.68315972222223 125.63715277777777)"/><path d="M1047.67 1473.47a8 8 0 0 1 9.6 0l189.6 142.2a4.5 4.5 0 0 1 0 7.2l-189.6 142.2a8 8 0 0 1-9.6 0l-189.6-142.2a4.5 4.5 0 0 1 0-7.2z" stroke="#d916a8" stroke-width="4" fill="#ff80df"/><use xlink:href="#p" transform="matrix(1,0,0,1,858.2714541353596,1474.8719772108625) translate(143.186640625 134.41840277777777)"/><use xlink:href="#q" transform="matrix(1,0,0,1,858.2714541353596,1474.8719772108625) translate(158.213984375 166.68402777777777)"/><path d="M1451.67 1528.82a6 6 0 0 1 6-6h244.15a6 6 0 0 1 6 6v180.9a6 6 0 0 1-6 6h-244.15a6 6 0 0 1-6-6z" stroke="#1071e5" stroke-width="4" fill="#cfe4ff"/><use xlink:href="#r" transform="matrix(1,0,0,1,1463.6666364270263,1534.8161105350866) translate(87.02951388888889 74.34027777777777)"/><use xlink:href="#s" transform="matrix(1,0,0,1,1463.6666364270263,1534.8161105350866) translate(63.58116319444446 106.60590277777777)"/><path d="M2239.5 1565.85a6 6 0 0 1 6-6h145.8a6 6 0 0 1 6 6v106.84a6 6 0 0 1-6 6h-145.8a6 6 0 0 1-6-6z" stroke="#1071e5" stroke-width="4" fill="#cfe4ff"/><use xlink:href="#t" transform="matrix(1,0,0,1,2251.48635836464,1571.849396714785) translate(42.89518229166667 39.34027777777778)"/><use xlink:href="#u" transform="matrix(1,0,0,1,2251.48635836464,1571.849396714785) translate(8.09700520833335 71.60590277777777)"/><path d="M1907.82 1575.7a6 6 0 0 1 6-6h119.67a6 6 0 0 1 6 6v87.15a6 6 0 0 1-6 6H1913.8a6 6 0 0 1-6-6z" stroke="#1071e5" stroke-width="4" fill="#cfe4ff"/><use xlink:href="#v" transform="matrix(1,0,0,1,1919.823320454804,1581.693347653571) translate(33.31315104166667 31.02777777777778)"/><use xlink:href="#w" transform="matrix(1,0,0,1,1919.823320454804,1581.693347653571) translate(10.070963541666664 63.29340277777778)"/><path d="M921.62 1974.67a6 6 0 0 1 6-6h249.7a6 6 0 0 1 6 6v185.07a6 6 0 0 1-6 6H927.6a6 6 0 0 1-6-6z" stroke="#1071e5" stroke-width="4" fill="#cfe4ff"/><use xlink:href="#x" transform="matrix(1,0,0,1,933.6237761839709,1980.6683639296125) translate(92.20421006944444 81.34027777777777)"/><use xlink:href="#y" transform="matrix(1,0,0,1,933.6237761839709,1980.6683639296125) translate(60.324869791666664 113.60590277777777)"/><path d="M199.4 1621.24h-51.06v-3.94h51.06zm120.2 0h-30.32v-3.94h30.32z" stroke="#3a414a" stroke-width=".05" fill="#3a414a"/><path d="M148.4 1621.24h-2.06v-3.94h2.05z" fill="#3a414a"/><path stroke="#3a414a" stroke-width=".05" fill="#3a414a"/><path d="M335.87 1619.27l-14.27 4.63v-9.27z" fill="#3a414a"/><path d="M342.26 1619.27l-22.64 7.35v-14.7zm-18.7 1.92l5.9-1.93-5.9-1.92z" stroke="#3a414a" stroke-width=".05" fill="#3a414a"/><use xlink:href="#z" transform="matrix(1,0,0,1,199.39775641313756,1595.6087122369042) translate(0 17.22222222222222)"/><use xlink:href="#A" transform="matrix(1,0,0,1,199.39775641313756,1595.6087122369042) translate(0 43.034722222222214)"/><path d="M657.27 1619.27h174.25" stroke="#3a414a" stroke-width="4" fill="none"/><path d="M657.32 1621.24h-2.05v-3.94h2.05z" stroke="#3a414a" stroke-width=".05" fill="#3a414a"/><path d="M847.8 1619.27l-14.27 4.63v-9.27z" stroke="#3a414a" stroke-width="4" fill="#3a414a"/><path d="M1054.44 1943.93h-3.95v-65.5h3.94zm0-87.02h-3.95v-86.23h3.94z" stroke="#3a414a" stroke-width=".05" fill="#3a414a"/><path d="M1051.18 1768.6l1.3.07 1.27-.08.7-.14v2.26h-3.96v-2.27z" fill="#3a414a"/><path stroke="#3a414a" stroke-width=".05" fill="#3a414a"/><path d="M1052.47 1960.2l-4.64-14.27h9.27z" fill="#3a414a"/><path d="M1052.47 1966.6l-7.36-22.64h14.72zm-1.92-18.7l1.92 5.9 1.92-5.9z" stroke="#3a414a" stroke-width=".05" fill="#3a414a"/><g><use xlink:href="#B" transform="matrix(1,0,0,1,999.7563716700818,1856.9152448186899) translate(0 17.22222222222222)"/><use xlink:href="#C" transform="matrix(1,0,0,1,999.7563716700818,1856.9152448186899) translate(59.791666666666664 17.22222222222222)"/></g><path d="M1252.67 1619.27h174.26" stroke="#3a414a" stroke-width="4" fill="none"/><path d="M1252.73 1621.24h-2.4l.23-.77.12-1.2-.12-1.2-.22-.77h2.4z" stroke="#3a414a" stroke-width=".05" fill="#3a414a"/><path d="M1443.2 1619.27l-14.27 4.63v-9.27z" stroke="#3a414a" stroke-width="4" fill="#3a414a"/><path d="M1756.9 1621.24h-45.08v-3.94h45.08zm126.18 0h-24.34v-3.94h24.35z" stroke="#3a414a" stroke-width=".05" fill="#3a414a"/><path d="M1711.88 1621.24h-2.06v-3.94h2.06z" fill="#3a414a"/><path stroke="#3a414a" stroke-width=".05" fill="#3a414a"/><path d="M1899.35 1619.27l-14.26 4.63v-9.27z" fill="#3a414a"/><path d="M1905.74 1619.27l-22.63 7.35v-14.7zm-18.68 1.92l5.9-1.93-5.9-1.92z" stroke="#3a414a" stroke-width=".05" fill="#3a414a"/><g><use xlink:href="#D" transform="matrix(1,0,0,1,1756.9031815520257,1608.5149622369042) translate(0 17.22222222222222)"/><use xlink:href="#E" transform="matrix(1,0,0,1,1756.9031815520257,1608.5149622369042) translate(48.88888888888889 17.22222222222222)"/></g><path d="M2043.5 1619.27h171.25" stroke="#3a414a" stroke-width="4" fill="none"/><path d="M2043.54 1621.24h-2.05v-3.94h2.04z" stroke="#3a414a" stroke-width=".05" fill="#3a414a"/><path d="M2231 1619.27l-14.25 4.63v-9.27z" stroke="#3a414a" stroke-width="4" fill="#3a414a"/><defs><path fill="#fff" d="M783 20c-382 0-661-292-661-764 0-473 279-766 661-766 302 0 548 182 601 489h-190c-42-204-217-313-411-313-268 0-476 208-476 590 0 381 209 588 476 588 195 0 369-110 411-313h190c-52 303-296 489-601 489" id="F"/><path fill="#fff" d="M158 0v-1118h174v172h12c41-113 157-188 290-188 26 0 70 2 91 3v181c-11-2-60-10-108-10-161 0-279 109-279 260V0H158" id="G"/><path fill="#fff" d="M628 24c-324 0-524-230-524-574 0-343 198-582 503-582 237 0 487 146 487 559v75H286c9 234 145 362 343 362 132 0 231-58 273-172l174 48C1024-91 857 24 628 24zM287-650h624c-17-190-120-322-304-322-192 0-309 151-320 322" id="H"/><path fill="#fff" d="M577 24c-279 0-473-224-473-580 0-354 195-576 474-576 218 0 287 134 324 193h14v-551h180V0H922v-173h-20C865-111 790 24 577 24zm27-161c203 0 314-172 314-421 0-247-108-413-314-413-212 0-317 181-317 413 0 235 108 421 317 421" id="I"/><path fill="#fff" d="M338-670V0H158v-1118h173l1 207c72-158 192-221 342-221 226 0 378 139 378 422V0H872v-695c0-172-96-275-252-275-161 0-282 109-282 300" id="J"/><path fill="#fff" d="M598-1118v154H368v674c0 100 37 144 132 144 23 0 62-6 92-12L629-6c-37 13-88 20-134 20-193 0-307-107-307-290v-688H20v-154h168v-266h180v266h230" id="K"/><path fill="#fff" d="M158 0v-1118h180V0H158zm91-1301c-68 0-125-53-125-119s57-119 125-119c69 0 126 53 126 119s-57 119-126 119" id="L"/><path fill="#fff" d="M471 26C259 26 90-98 90-318c0-256 228-303 435-329 202-27 287-16 287-108 0-139-79-219-234-219-161 0-248 86-283 164l-173-57c86-203 278-265 451-265 150 0 419 46 419 395V0H815v-152h-12C765-73 660 26 471 26zm31-159c199 0 310-134 310-271v-155c-30 35-226 55-295 64-131 17-246 59-246 186 0 116 97 176 231 176" id="M"/><path fill="#fff" d="M338-1490V0H158v-1490h180" id="N"/><g id="a"><use transform="matrix(0.01953125,0,0,0.01953125,0,0)" xlink:href="#F"/><use transform="matrix(0.01953125,0,0,0.01953125,29.21875,0)" xlink:href="#G"/><use transform="matrix(0.01953125,0,0,0.01953125,43.61328125,0)" xlink:href="#H"/><use transform="matrix(0.01953125,0,0,0.01953125,66.93359375,0)" xlink:href="#I"/><use transform="matrix(0.01953125,0,0,0.01953125,91.42578125,0)" xlink:href="#H"/><use transform="matrix(0.01953125,0,0,0.01953125,114.74609375,0)" xlink:href="#J"/><use transform="matrix(0.01953125,0,0,0.01953125,138.37890625,0)" xlink:href="#K"/><use transform="matrix(0.01953125,0,0,0.01953125,151.46484375,0)" xlink:href="#L"/><use transform="matrix(0.01953125,0,0,0.01953125,161.15234375,0)" xlink:href="#M"/><use transform="matrix(0.01953125,0,0,0.01953125,183.61328125,0)" xlink:href="#N"/></g><path fill="#fff" d="M600 0L52-1490h200c166 485 304 806 458 1336 156-533 285-846 449-1336h202L819 0H600" id="O"/><path fill="#fff" d="M678-1118v154H420V0H240v-964H20v-154h220v-149c0-194 155-293 318-293 85 0 141 18 168 30l-50 154c-19-6-47-17-97-17-111 0-159 58-159 166v109h258" id="P"/><path fill="#fff" d="M613 24c-304 0-509-231-509-576 0-350 205-580 509-580 216 0 392 114 453 309l-173 49c-33-115-133-197-280-197-223 0-326 196-326 419 0 220 103 415 326 415 150 0 252-85 285-206l172 49C1010-95 832 24 613 24" id="Q"/><path fill="#fff" d="M613 24c-304 0-509-231-509-576 0-350 205-580 509-580 305 0 511 230 511 580 0 345-206 576-511 576zm0-161c226 0 329-195 329-415 0-222-103-419-329-419-223 0-326 196-326 419 0 220 103 415 326 415" id="R"/><g id="b"><use transform="matrix(0.01953125,0,0,0.01953125,0,0)" xlink:href="#O"/><use transform="matrix(0.01953125,0,0,0.01953125,25.56640625,0)" xlink:href="#H"/><use transform="matrix(0.01953125,0,0,0.01953125,48.88671875,0)" xlink:href="#G"/><use transform="matrix(0.01953125,0,0,0.01953125,64.5703125,0)" xlink:href="#L"/><use transform="matrix(0.01953125,0,0,0.01953125,74.2578125,0)" xlink:href="#P"/><use transform="matrix(0.01953125,0,0,0.01953125,89.0625,0)" xlink:href="#L"/><use transform="matrix(0.01953125,0,0,0.01953125,98.75,0)" xlink:href="#Q"/><use transform="matrix(0.01953125,0,0,0.01953125,121.9921875,0)" xlink:href="#M"/><use transform="matrix(0.01953125,0,0,0.01953125,144.453125,0)" xlink:href="#K"/><use transform="matrix(0.01953125,0,0,0.01953125,157.5390625,0)" xlink:href="#L"/><use transform="matrix(0.01953125,0,0,0.01953125,167.2265625,0)" xlink:href="#R"/><use transform="matrix(0.01953125,0,0,0.01953125,191.2109375,0)" xlink:href="#J"/></g><path fill="#fff" d="M180 0v-1490h510c348 0 508 209 508 474 0 266-160 477-507 477H370V0H180zm190-706h312c236 0 327-133 327-310 0-176-91-307-329-307H370v617" id="S"/><path fill="#fff" d="M538 24C308 24 148-78 108-271l171-41c32 123 123 178 257 178 156 0 256-77 256-169 0-77-54-128-164-154l-186-44c-203-48-300-148-300-305 0-192 176-326 414-326 230 0 351 112 402 269l-163 42c-31-80-94-158-238-158-133 0-233 69-233 162 0 83 57 129 188 160l169 40c203 48 298 149 298 302 0 196-179 339-441 339" id="T"/><g id="c"><use transform="matrix(0.01953125,0,0,0.01953125,0,0)" xlink:href="#S"/><use transform="matrix(0.01953125,0,0,0.01953125,25.546875,0)" xlink:href="#G"/><use transform="matrix(0.01953125,0,0,0.01953125,39.94140625,0)" xlink:href="#R"/><use transform="matrix(0.01953125,0,0,0.01953125,63.92578125,0)" xlink:href="#Q"/><use transform="matrix(0.01953125,0,0,0.01953125,86.77734375,0)" xlink:href="#H"/><use transform="matrix(0.01953125,0,0,0.01953125,110.09765625,0)" xlink:href="#T"/><use transform="matrix(0.01953125,0,0,0.01953125,131.2109375,0)" xlink:href="#T"/></g><path fill="#fff" d="M645 0H180v-1490h484c435 0 692 280 692 742 0 466-257 748-711 748zM370-168h263c363 0 539-218 539-580 0-358-176-574-521-574H370v1154" id="U"/><path fill="#fff" d="M611 442c-248 0-391-105-460-228l146-94c47 65 117 165 314 165 178 0 307-82 307-266v-224h-17C863-141 792-18 576-18c-268 0-472-195-472-546 0-346 197-568 476-568 216 0 288 133 326 193h17v-179h175V29c0 289-215 413-487 413zm-5-620c203 0 314-146 314-390 0-237-108-403-314-403-213 0-319 180-319 403 0 230 109 390 319 390" id="V"/><path fill="#fff" d="M158 0v-1118h175l1 205c55-151 181-225 313-225 147 0 245 90 285 228 53-141 190-228 352-228 194 0 352 125 352 384V0h-181v-749c0-161-105-225-225-225-151 0-243 103-243 244V0H807v-767c0-124-93-207-219-207-131 0-250 92-250 270V0H158" id="W"/><g id="d"><use transform="matrix(0.01953125,0,0,0.01953125,0,0)" xlink:href="#U"/><use transform="matrix(0.01953125,0,0,0.01953125,28.8671875,0)" xlink:href="#L"/><use transform="matrix(0.01953125,0,0,0.01953125,38.5546875,0)" xlink:href="#M"/><use transform="matrix(0.01953125,0,0,0.01953125,61.015625,0)" xlink:href="#V"/><use transform="matrix(0.01953125,0,0,0.01953125,85.546875,0)" xlink:href="#G"/><use transform="matrix(0.01953125,0,0,0.01953125,100.60546875,0)" xlink:href="#M"/><use transform="matrix(0.01953125,0,0,0.01953125,123.06640625,0)" xlink:href="#W"/></g><path d="M763 24c-353 0-583-224-583-531v-983h190v968c0 214 149 370 393 370 243 0 391-156 391-370v-968h190v983c0 307-230 531-581 531" id="X"/><path d="M538 24C308 24 148-78 108-271l171-41c32 123 123 178 257 178 156 0 256-77 256-169 0-77-54-128-164-154l-186-44c-203-48-300-148-300-305 0-192 176-326 414-326 230 0 351 112 402 269l-163 42c-31-80-94-158-238-158-133 0-233 69-233 162 0 83 57 129 188 160l169 40c203 48 298 149 298 302 0 196-179 339-441 339" id="Y"/><path d="M628 24c-324 0-524-230-524-574 0-343 198-582 503-582 237 0 487 146 487 559v75H286c9 234 145 362 343 362 132 0 231-58 273-172l174 48C1024-91 857 24 628 24zM287-650h624c-17-190-120-322-304-322-192 0-309 151-320 322" id="Z"/><path d="M158 0v-1118h174v172h12c41-113 157-188 290-188 26 0 70 2 91 3v181c-11-2-60-10-108-10-161 0-279 109-279 260V0H158" id="aa"/><g id="e"><use transform="matrix(0.008680555555555556,0,0,0.008680555555555556,0,0)" xlink:href="#X"/><use transform="matrix(0.008680555555555556,0,0,0.008680555555555556,13.229166666666668,0)" xlink:href="#Y"/><use transform="matrix(0.008680555555555556,0,0,0.008680555555555556,22.612847222222225,0)" xlink:href="#Z"/><use transform="matrix(0.008680555555555556,0,0,0.008680555555555556,32.97743055555556,0)" xlink:href="#aa"/></g><path d="M783 20c-382 0-661-292-661-764 0-473 279-766 661-766 302 0 548 182 601 489h-190c-42-204-217-313-411-313-268 0-476 208-476 590 0 381 209 588 476 588 195 0 369-110 411-313h190c-52 303-296 489-601 489" id="ab"/><path d="M577 24c-279 0-473-224-473-580 0-354 195-576 474-576 218 0 287 134 324 193h14v-551h180V0H922v-173h-20C865-111 790 24 577 24zm27-161c203 0 314-172 314-421 0-247-108-413-314-413-212 0-317 181-317 413 0 235 108 421 317 421" id="ac"/><path d="M338-670V0H158v-1118h173l1 207c72-158 192-221 342-221 226 0 378 139 378 422V0H872v-695c0-172-96-275-252-275-161 0-282 109-282 300" id="ad"/><path d="M598-1118v154H368v674c0 100 37 144 132 144 23 0 62-6 92-12L629-6c-37 13-88 20-134 20-193 0-307-107-307-290v-688H20v-154h168v-266h180v266h230" id="ae"/><path d="M158 0v-1118h180V0H158zm91-1301c-68 0-125-53-125-119s57-119 125-119c69 0 126 53 126 119s-57 119-126 119" id="af"/><path d="M471 26C259 26 90-98 90-318c0-256 228-303 435-329 202-27 287-16 287-108 0-139-79-219-234-219-161 0-248 86-283 164l-173-57c86-203 278-265 451-265 150 0 419 46 419 395V0H815v-152h-12C765-73 660 26 471 26zm31-159c199 0 310-134 310-271v-155c-30 35-226 55-295 64-131 17-246 59-246 186 0 116 97 176 231 176" id="ag"/><path d="M338-1490V0H158v-1490h180" id="ah"/><g id="f"><use transform="matrix(0.008680555555555556,0,0,0.008680555555555556,0,0)" xlink:href="#ab"/><use transform="matrix(0.008680555555555556,0,0,0.008680555555555556,12.986111111111112,0)" xlink:href="#aa"/><use transform="matrix(0.008680555555555556,0,0,0.008680555555555556,19.383680555555557,0)" xlink:href="#Z"/><use transform="matrix(0.008680555555555556,0,0,0.008680555555555556,29.748263888888893,0)" xlink:href="#ac"/><use transform="matrix(0.008680555555555556,0,0,0.008680555555555556,40.63368055555556,0)" xlink:href="#Z"/><use transform="matrix(0.008680555555555556,0,0,0.008680555555555556,50.99826388888889,0)" xlink:href="#ad"/><use transform="matrix(0.008680555555555556,0,0,0.008680555555555556,61.501736111111114,0)" xlink:href="#ae"/><use transform="matrix(0.008680555555555556,0,0,0.008680555555555556,67.31770833333334,0)" xlink:href="#af"/><use transform="matrix(0.008680555555555556,0,0,0.008680555555555556,71.62326388888889,0)" xlink:href="#ag"/><use transform="matrix(0.008680555555555556,0,0,0.008680555555555556,81.60590277777779,0)" xlink:href="#ah"/></g><path d="M600 0L52-1490h200c166 485 304 806 458 1336 156-533 285-846 449-1336h202L819 0H600" id="ai"/><path d="M678-1118v154H420V0H240v-964H20v-154h220v-149c0-194 155-293 318-293 85 0 141 18 168 30l-50 154c-19-6-47-17-97-17-111 0-159 58-159 166v109h258" id="aj"/><g id="g"><use transform="matrix(0.008680555555555556,0,0,0.008680555555555556,0,0)" xlink:href="#ai"/><use transform="matrix(0.008680555555555556,0,0,0.008680555555555556,11.362847222222221,0)" xlink:href="#Z"/><use transform="matrix(0.008680555555555556,0,0,0.008680555555555556,21.727430555555557,0)" xlink:href="#aa"/><use transform="matrix(0.008680555555555556,0,0,0.008680555555555556,28.69791666666667,0)" xlink:href="#af"/><use transform="matrix(0.008680555555555556,0,0,0.008680555555555556,33.00347222222223,0)" xlink:href="#aj"/><use transform="matrix(0.008680555555555556,0,0,0.008680555555555556,39.58333333333334,0)" xlink:href="#af"/><use transform="matrix(0.008680555555555556,0,0,0.008680555555555556,43.8888888888889,0)" xlink:href="#Z"/><use transform="matrix(0.008680555555555556,0,0,0.008680555555555556,54.253472222222236,0)" xlink:href="#aa"/></g><path d="M600 0v-610L52-1490h220l295 481c50 82 90 150 130 243 40-96 80-164 128-243l294-481h219L790-610V0H600" id="ak"/><path d="M613 24c-304 0-509-231-509-576 0-350 205-580 509-580 305 0 511 230 511 580 0 345-206 576-511 576zm0-161c226 0 329-195 329-415 0-222-103-419-329-419-223 0-326 196-326 419 0 220 103 415 326 415" id="al"/><path d="M537 14c-226 0-379-139-379-422v-710h180v695c0 172 97 275 253 275 160 0 281-109 281-300v-670h181V0H879v-209C806-46 684 14 537 14" id="am"/><g id="h"><use transform="matrix(0.008680555555555556,0,0,0.008680555555555556,0,0)" xlink:href="#ak"/><use transform="matrix(0.008680555555555556,0,0,0.008680555555555556,10.703125,0)" xlink:href="#al"/><use transform="matrix(0.008680555555555556,0,0,0.008680555555555556,21.36284722222222,0)" xlink:href="#am"/><use transform="matrix(0.008680555555555556,0,0,0.008680555555555556,31.875,0)" xlink:href="#aa"/></g><path d="M784 20c-382 0-662-292-662-764 0-473 280-766 662-766s660 293 660 766c0 472-278 764-660 764zm0-176c266 0 475-207 475-588 0-383-209-590-475-590-268 0-477 208-477 590 0 380 209 588 477 588" id="an"/><path d="M611 442c-248 0-391-105-460-228l146-94c47 65 117 165 314 165 178 0 307-82 307-266v-224h-17C863-141 792-18 576-18c-268 0-472-195-472-546 0-346 197-568 476-568 216 0 288 133 326 193h17v-179h175V29c0 289-215 413-487 413zm-5-620c203 0 314-146 314-390 0-237-108-403-314-403-213 0-319 180-319 403 0 230 109 390 319 390" id="ao"/><path d="M126 0v-134l627-806v-11H146v-167h839v143L376-178v11h629V0H126" id="ap"/><g id="i"><use transform="matrix(0.008680555555555556,0,0,0.008680555555555556,0,0)" xlink:href="#an"/><use transform="matrix(0.008680555555555556,0,0,0.008680555555555556,13.59375,0)" xlink:href="#aa"/><use transform="matrix(0.008680555555555556,0,0,0.008680555555555556,19.991319444444443,0)" xlink:href="#ao"/><use transform="matrix(0.008680555555555556,0,0,0.008680555555555556,30.894097222222218,0)" xlink:href="#ag"/><use transform="matrix(0.008680555555555556,0,0,0.008680555555555556,40.876736111111114,0)" xlink:href="#ad"/><use transform="matrix(0.008680555555555556,0,0,0.008680555555555556,51.380208333333336,0)" xlink:href="#af"/><use transform="matrix(0.008680555555555556,0,0,0.008680555555555556,55.68576388888889,0)" xlink:href="#ap"/><use transform="matrix(0.008680555555555556,0,0,0.008680555555555556,65.50347222222223,0)" xlink:href="#ag"/><use transform="matrix(0.008680555555555556,0,0,0.008680555555555556,75.48611111111111,0)" xlink:href="#ae"/><use transform="matrix(0.008680555555555556,0,0,0.008680555555555556,81.30208333333334,0)" xlink:href="#af"/><use transform="matrix(0.008680555555555556,0,0,0.008680555555555556,85.60763888888889,0)" xlink:href="#al"/><use transform="matrix(0.008680555555555556,0,0,0.008680555555555556,96.26736111111113,0)" xlink:href="#ad"/></g><path d="M645 0H180v-1490h484c435 0 692 280 692 742 0 466-257 748-711 748zM370-168h263c363 0 539-218 539-580 0-358-176-574-521-574H370v1154" id="aq"/><g id="j"><use transform="matrix(0.010850694444444444,0,0,0.010850694444444444,0,0)" xlink:href="#aq"/><use transform="matrix(0.010850694444444444,0,0,0.010850694444444444,16.03732638888889,0)" xlink:href="#af"/><use transform="matrix(0.010850694444444444,0,0,0.010850694444444444,21.419270833333336,0)" xlink:href="#ao"/><use transform="matrix(0.010850694444444444,0,0,0.010850694444444444,35.04774305555556,0)" xlink:href="#af"/><use transform="matrix(0.010850694444444444,0,0,0.010850694444444444,40.4296875,0)" xlink:href="#ae"/><use transform="matrix(0.010850694444444444,0,0,0.010850694444444444,47.80815972222222,0)" xlink:href="#ag"/><use transform="matrix(0.010850694444444444,0,0,0.010850694444444444,60.28645833333333,0)" xlink:href="#ah"/></g><path d="M458 0L52-1490h194c108 439 233 855 324 1313 92-459 221-873 331-1313h216c110 438 234 854 330 1307 92-455 216-869 323-1307h196L1558 0h-221l-256-944c-26-95-50-200-73-331-22 122-44 223-73 331L680 0H458" id="ar"/><g id="k"><use transform="matrix(0.010850694444444444,0,0,0.010850694444444444,0,0)" xlink:href="#ar"/><use transform="matrix(0.010850694444444444,0,0,0.010850694444444444,20.768229166666668,0)" xlink:href="#ag"/><use transform="matrix(0.010850694444444444,0,0,0.010850694444444444,33.24652777777778,0)" xlink:href="#ah"/><use transform="matrix(0.010850694444444444,0,0,0.010850694444444444,38.62847222222222,0)" xlink:href="#ah"/><use transform="matrix(0.010850694444444444,0,0,0.010850694444444444,44.010416666666664,0)" xlink:href="#Z"/><use transform="matrix(0.010850694444444444,0,0,0.010850694444444444,56.96614583333333,0)" xlink:href="#ae"/></g><path d="M409 0L70-1118h191c89 329 165 560 243 925 75-353 154-601 240-925h192c85 325 161 564 235 922 77-354 157-598 244-922h191L1267 0h-179c-86-307-176-590-250-913C763-588 675-308 588 0H409" id="as"/><path d="M338-670V0H158v-1490h180v566c73-149 190-208 336-208 226 0 379 139 379 422V0H872v-695c0-172-96-275-252-275-161 0-282 109-282 300" id="at"/><g id="l"><use transform="matrix(0.010850694444444444,0,0,0.010850694444444444,0,0)" xlink:href="#as"/><use transform="matrix(0.010850694444444444,0,0,0.010850694444444444,18.18576388888889,0)" xlink:href="#af"/><use transform="matrix(0.010850694444444444,0,0,0.010850694444444444,23.567708333333336,0)" xlink:href="#ae"/><use transform="matrix(0.010850694444444444,0,0,0.010850694444444444,30.837673611111114,0)" xlink:href="#at"/></g><g id="m"><use transform="matrix(0.010850694444444444,0,0,0.010850694444444444,0,0)" xlink:href="#ab"/><use transform="matrix(0.010850694444444444,0,0,0.010850694444444444,16.23263888888889,0)" xlink:href="#aa"/><use transform="matrix(0.010850694444444444,0,0,0.010850694444444444,24.229600694444443,0)" xlink:href="#Z"/><use transform="matrix(0.010850694444444444,0,0,0.010850694444444444,37.18532986111111,0)" xlink:href="#ac"/><use transform="matrix(0.010850694444444444,0,0,0.010850694444444444,50.79210069444444,0)" xlink:href="#Z"/><use transform="matrix(0.010850694444444444,0,0,0.010850694444444444,63.74782986111111,0)" xlink:href="#ad"/><use transform="matrix(0.010850694444444444,0,0,0.010850694444444444,76.87717013888889,0)" xlink:href="#ae"/><use transform="matrix(0.010850694444444444,0,0,0.010850694444444444,84.14713541666666,0)" xlink:href="#af"/><use transform="matrix(0.010850694444444444,0,0,0.010850694444444444,89.52907986111111,0)" xlink:href="#ag"/><use transform="matrix(0.010850694444444444,0,0,0.010850694444444444,102.00737847222221,0)" xlink:href="#ah"/><use transform="matrix(0.010850694444444444,0,0,0.010850694444444444,107.38932291666666,0)" xlink:href="#Y"/></g><path d="M180 0v-1490h510c348 0 508 209 508 474 0 266-160 477-507 477H370V0H180zm190-706h312c236 0 327-133 327-310 0-176-91-307-329-307H370v617" id="au"/><g id="n"><use transform="matrix(0.010850694444444444,0,0,0.010850694444444444,0,0)" xlink:href="#au"/><use transform="matrix(0.010850694444444444,0,0,0.010850694444444444,14.192708333333332,0)" xlink:href="#aa"/><use transform="matrix(0.010850694444444444,0,0,0.010850694444444444,22.189670138888886,0)" xlink:href="#Z"/><use transform="matrix(0.010850694444444444,0,0,0.010850694444444444,35.14539930555555,0)" xlink:href="#Y"/><use transform="matrix(0.010850694444444444,0,0,0.010850694444444444,46.874999999999986,0)" xlink:href="#Z"/><use transform="matrix(0.010850694444444444,0,0,0.010850694444444444,59.83072916666666,0)" xlink:href="#ad"/><use transform="matrix(0.010850694444444444,0,0,0.010850694444444444,72.96006944444443,0)" xlink:href="#ae"/><use transform="matrix(0.010850694444444444,0,0,0.010850694444444444,80.33854166666664,0)" xlink:href="#ag"/><use transform="matrix(0.010850694444444444,0,0,0.010850694444444444,92.81684027777776,0)" xlink:href="#ae"/><use transform="matrix(0.010850694444444444,0,0,0.010850694444444444,100.08680555555553,0)" xlink:href="#af"/><use transform="matrix(0.010850694444444444,0,0,0.010850694444444444,105.46874999999997,0)" xlink:href="#al"/><use transform="matrix(0.010850694444444444,0,0,0.010850694444444444,118.79340277777773,0)" xlink:href="#ad"/></g><path d="M180 0v-1490h510c348 0 508 194 508 460 0 198-88 351-276 417L1256 0h-220L726-579c-117 2-238 0-356 1V0H180zm190-747h312c235 0 327-108 327-283 0-177-92-293-329-293H370v576" id="av"/><path d="M1096 418H916v-591h-14C865-111 790 24 577 24c-279 0-473-224-473-580 0-354 195-576 474-576 218 0 287 134 324 193h20v-179h174V418zM604-137c203 0 314-172 314-421 0-247-108-413-314-413-212 0-317 181-317 413 0 235 108 421 317 421" id="aw"/><g id="o"><use transform="matrix(0.010850694444444444,0,0,0.010850694444444444,0,0)" xlink:href="#av"/><use transform="matrix(0.010850694444444444,0,0,0.010850694444444444,13.975694444444445,0)" xlink:href="#Z"/><use transform="matrix(0.010850694444444444,0,0,0.010850694444444444,26.931423611111104,0)" xlink:href="#aw"/><use transform="matrix(0.010850694444444444,0,0,0.010850694444444444,40.53819444444444,0)" xlink:href="#am"/><use transform="matrix(0.010850694444444444,0,0,0.010850694444444444,53.678385416666664,0)" xlink:href="#Z"/><use transform="matrix(0.010850694444444444,0,0,0.010850694444444444,66.63411458333333,0)" xlink:href="#Y"/><use transform="matrix(0.010850694444444444,0,0,0.010850694444444444,78.36371527777777,0)" xlink:href="#ae"/></g><g id="p"><use transform="matrix(0.010850694444444444,0,0,0.010850694444444444,0,0)" xlink:href="#ai"/><use transform="matrix(0.010850694444444444,0,0,0.010850694444444444,14.20355902777778,0)" xlink:href="#ag"/><use transform="matrix(0.010850694444444444,0,0,0.010850694444444444,26.68185763888889,0)" xlink:href="#ah"/><use transform="matrix(0.010850694444444444,0,0,0.010850694444444444,32.063802083333336,0)" xlink:href="#af"/><use transform="matrix(0.010850694444444444,0,0,0.010850694444444444,37.44574652777778,0)" xlink:href="#ac"/><use transform="matrix(0.010850694444444444,0,0,0.010850694444444444,51.05251736111112,0)" xlink:href="#ag"/><use transform="matrix(0.010850694444444444,0,0,0.010850694444444444,63.53081597222223,0)" xlink:href="#ae"/><use transform="matrix(0.010850694444444444,0,0,0.010850694444444444,70.80078125,0)" xlink:href="#af"/><use transform="matrix(0.010850694444444444,0,0,0.010850694444444444,76.18272569444444,0)" xlink:href="#al"/><use transform="matrix(0.010850694444444444,0,0,0.010850694444444444,89.50737847222221,0)" xlink:href="#ad"/></g><path d="M180 0v-1490h908v168H370v486h669v168H370v500h727V0H180" id="ax"/><g id="q"><use transform="matrix(0.010850694444444444,0,0,0.010850694444444444,0,0)" xlink:href="#ax"/><use transform="matrix(0.010850694444444444,0,0,0.010850694444444444,13.35720486111111,0)" xlink:href="#ad"/><use transform="matrix(0.010850694444444444,0,0,0.010850694444444444,26.48654513888889,0)" xlink:href="#ao"/><use transform="matrix(0.010850694444444444,0,0,0.010850694444444444,40.11501736111111,0)" xlink:href="#af"/><use transform="matrix(0.010850694444444444,0,0,0.010850694444444444,45.49696180555556,0)" xlink:href="#ad"/><use transform="matrix(0.010850694444444444,0,0,0.010850694444444444,58.62630208333333,0)" xlink:href="#Z"/></g><path d="M158 0v-1118h175l1 205c55-151 181-225 313-225 147 0 245 90 285 228 53-141 190-228 352-228 194 0 352 125 352 384V0h-181v-749c0-161-105-225-225-225-151 0-243 103-243 244V0H807v-767c0-124-93-207-219-207-131 0-250 92-250 270V0H158" id="ay"/><g id="r"><use transform="matrix(0.010850694444444444,0,0,0.010850694444444444,0,0)" xlink:href="#ab"/><use transform="matrix(0.010850694444444444,0,0,0.010850694444444444,16.23263888888889,0)" xlink:href="#ah"/><use transform="matrix(0.010850694444444444,0,0,0.010850694444444444,21.614583333333336,0)" xlink:href="#ag"/><use transform="matrix(0.010850694444444444,0,0,0.010850694444444444,34.09288194444444,0)" xlink:href="#af"/><use transform="matrix(0.010850694444444444,0,0,0.010850694444444444,39.474826388888886,0)" xlink:href="#ay"/></g><path d="M65 0l393-574-370-544h210c88 136 192 297 267 435 67-142 176-302 264-435h206L661-564 1053 0H844c-94-144-206-310-287-458C484-308 366-142 273 0H65" id="az"/><path d="M613 24c-304 0-509-231-509-576 0-350 205-580 509-580 216 0 392 114 453 309l-173 49c-33-115-133-197-280-197-223 0-326 196-326 419 0 220 103 415 326 415 150 0 252-85 285-206l172 49C1010-95 832 24 613 24" id="aA"/><g id="s"><use transform="matrix(0.010850694444444444,0,0,0.010850694444444444,0,0)" xlink:href="#ax"/><use transform="matrix(0.010850694444444444,0,0,0.010850694444444444,13.35720486111111,0)" xlink:href="#az"/><use transform="matrix(0.010850694444444444,0,0,0.010850694444444444,25.92230902777778,0)" xlink:href="#ae"/><use transform="matrix(0.010850694444444444,0,0,0.010850694444444444,33.19227430555556,0)" xlink:href="#aa"/><use transform="matrix(0.010850694444444444,0,0,0.010850694444444444,41.55815972222222,0)" xlink:href="#ag"/><use transform="matrix(0.010850694444444444,0,0,0.010850694444444444,54.03645833333333,0)" xlink:href="#aA"/><use transform="matrix(0.010850694444444444,0,0,0.010850694444444444,66.73177083333333,0)" xlink:href="#ae"/><use transform="matrix(0.010850694444444444,0,0,0.010850694444444444,74.0017361111111,0)" xlink:href="#af"/><use transform="matrix(0.010850694444444444,0,0,0.010850694444444444,79.38368055555554,0)" xlink:href="#al"/><use transform="matrix(0.010850694444444444,0,0,0.010850694444444444,92.70833333333331,0)" xlink:href="#ad"/></g><g id="t"><use transform="matrix(0.010850694444444444,0,0,0.010850694444444444,0,0)" xlink:href="#ak"/><use transform="matrix(0.010850694444444444,0,0,0.010850694444444444,13.37890625,0)" xlink:href="#al"/><use transform="matrix(0.010850694444444444,0,0,0.010850694444444444,26.70355902777778,0)" xlink:href="#am"/><use transform="matrix(0.010850694444444444,0,0,0.010850694444444444,39.84375,0)" xlink:href="#aa"/></g><path d="M52 0l541-1490h220L1361 0h-200l-149-416H398L254 0H52zm404-582h497c-103-290-145-390-251-756-108 377-145 460-246 756" id="aB"/><path d="M158 418v-1536h174v179h20c37-59 106-193 324-193 279 0 474 222 474 576 0 356-194 580-473 580-213 0-288-135-325-197h-14v591H158zm492-555c209 0 317-186 317-421 0-232-105-413-317-413-206 0-314 166-314 413 0 249 111 421 314 421" id="aC"/><g id="u"><use transform="matrix(0.010850694444444444,0,0,0.010850694444444444,0,0)" xlink:href="#aB"/><use transform="matrix(0.010850694444444444,0,0,0.010850694444444444,15.33203125,0)" xlink:href="#aC"/><use transform="matrix(0.010850694444444444,0,0,0.010850694444444444,28.938802083333332,0)" xlink:href="#aC"/><use transform="matrix(0.010850694444444444,0,0,0.010850694444444444,42.545572916666664,0)" xlink:href="#ah"/><use transform="matrix(0.010850694444444444,0,0,0.010850694444444444,47.92751736111111,0)" xlink:href="#af"/><use transform="matrix(0.010850694444444444,0,0,0.010850694444444444,53.30946180555556,0)" xlink:href="#aA"/><use transform="matrix(0.010850694444444444,0,0,0.010850694444444444,66.22178819444443,0)" xlink:href="#ag"/><use transform="matrix(0.010850694444444444,0,0,0.010850694444444444,78.70008680555554,0)" xlink:href="#ae"/><use transform="matrix(0.010850694444444444,0,0,0.010850694444444444,85.97005208333331,0)" xlink:href="#af"/><use transform="matrix(0.010850694444444444,0,0,0.010850694444444444,91.35199652777776,0)" xlink:href="#al"/><use transform="matrix(0.010850694444444444,0,0,0.010850694444444444,104.67664930555553,0)" xlink:href="#ad"/></g><path d="M370-1490V0H180v-1490h190" id="aD"/><path d="M180 0v-1490h270l367 940c28 72 75 218 110 339 35-117 81-264 110-339l362-940h271V0h-187c2-448-5-837 7-1287-157 497-311 829-483 1287H842C666-458 514-784 354-1284c12 438 5 843 7 1284H180" id="aE"/><g id="v"><use transform="matrix(0.010850694444444444,0,0,0.010850694444444444,0,0)" xlink:href="#aD"/><use transform="matrix(0.010850694444444444,0,0,0.010850694444444444,5.967881944444445,0)" xlink:href="#aB"/><use transform="matrix(0.010850694444444444,0,0,0.010850694444444444,21.299913194444443,0)" xlink:href="#aE"/></g><g id="w"><use transform="matrix(0.010850694444444444,0,0,0.010850694444444444,0,0)" xlink:href="#au"/><use transform="matrix(0.010850694444444444,0,0,0.010850694444444444,14.192708333333332,0)" xlink:href="#ah"/><use transform="matrix(0.010850694444444444,0,0,0.010850694444444444,19.57465277777778,0)" xlink:href="#ag"/><use transform="matrix(0.010850694444444444,0,0,0.010850694444444444,32.052951388888886,0)" xlink:href="#ae"/><use transform="matrix(0.010850694444444444,0,0,0.010850694444444444,38.78038194444444,0)" xlink:href="#aj"/><use transform="matrix(0.010850694444444444,0,0,0.010850694444444444,46.35416666666667,0)" xlink:href="#al"/><use transform="matrix(0.010850694444444444,0,0,0.010850694444444444,59.67881944444445,0)" xlink:href="#aa"/><use transform="matrix(0.010850694444444444,0,0,0.010850694444444444,68.39192708333334,0)" xlink:href="#ay"/></g><path d="M98-1322v-168h1126v168H757V0H567v-1322H98" id="aF"/><g id="x"><use transform="matrix(0.010850694444444444,0,0,0.010850694444444444,0,0)" xlink:href="#aF"/><use transform="matrix(0.010850694444444444,0,0,0.010850694444444444,13.0859375,0)" xlink:href="#aa"/><use transform="matrix(0.010850694444444444,0,0,0.010850694444444444,21.451822916666664,0)" xlink:href="#am"/><use transform="matrix(0.010850694444444444,0,0,0.010850694444444444,34.592013888888886,0)" xlink:href="#Y"/><use transform="matrix(0.010850694444444444,0,0,0.010850694444444444,46.32161458333333,0)" xlink:href="#ae"/></g><path d="M180 0v-1490h901v168H370v510h643v168H370V0H180" id="aG"/><path d="M158 0v-1490h180v865h22l478-493h223L593-638 1096 0H865L456-523 338-412V0H158" id="aH"/><g id="y"><use transform="matrix(0.010850694444444444,0,0,0.010850694444444444,0,0)" xlink:href="#aG"/><use transform="matrix(0.010850694444444444,0,0,0.010850694444444444,12.467447916666666,0)" xlink:href="#aa"/><use transform="matrix(0.010850694444444444,0,0,0.010850694444444444,20.833333333333332,0)" xlink:href="#ag"/><use transform="matrix(0.010850694444444444,0,0,0.010850694444444444,33.31163194444444,0)" xlink:href="#ay"/><use transform="matrix(0.010850694444444444,0,0,0.010850694444444444,52.77777777777778,0)" xlink:href="#Z"/><use transform="matrix(0.010850694444444444,0,0,0.010850694444444444,65.33203125,0)" xlink:href="#as"/><use transform="matrix(0.010850694444444444,0,0,0.010850694444444444,83.11631944444444,0)" xlink:href="#al"/><use transform="matrix(0.010850694444444444,0,0,0.010850694444444444,96.44097222222221,0)" xlink:href="#aa"/><use transform="matrix(0.010850694444444444,0,0,0.010850694444444444,105.15407986111111,0)" xlink:href="#aH"/></g><path fill="#3a414a" d="M135 0v-1490h581c339 0 533 210 533 503 0 295-197 500-540 500H440V0H135zm305-733h220c186 0 274-104 274-254s-88-251-275-251H440v505" id="aI"/><path fill="#3a414a" d="M128 0v-1118h290v195h12c54-169 184-238 367-200v268c-27-8-86-15-130-15-138 0-239 95-239 234V0H128" id="aJ"/><path fill="#3a414a" d="M633 22C291 22 81-200 81-553c0-345 210-579 537-579 292 0 525 185 525 567v84H378c7 183 109 277 260 277 105 0 184-46 216-132l272 51C1071-99 893 22 633 22zM380-669h474c-15-146-94-237-233-237-143 0-229 99-241 237" id="aK"/><path fill="#3a414a" d="M572 22C302 22 117-98 78-306l279-48c29 105 101 156 224 156 114 0 185-48 185-115 0-118-228-130-337-155-215-49-322-150-322-317 0-215 187-347 470-347 265 0 424 116 466 298l-266 47c-24-76-87-130-196-130-98 0-174 46-174 113 0 56 38 95 144 117l201 40c216 44 320 143 320 302 0 220-207 367-500 367" id="aL"/><path fill="#3a414a" d="M428-647V0H128v-1118h283l4 231c63-156 176-245 348-245 232 0 384 159 384 421V0H847v-659c0-139-76-222-202-222-128 0-217 86-217 234" id="aM"/><path fill="#3a414a" d="M683-1118v229H474v562c0 71 29 104 102 104 23 0 73-7 95-13l43 225C647 9 580 16 520 16 296 16 174-96 174-301v-588H20v-229h154v-266h300v266h209" id="aN"/><g id="z"><use transform="matrix(0.008680555555555556,0,0,0.008680555555555556,0,0)" xlink:href="#aI"/><use transform="matrix(0.008680555555555556,0,0,0.008680555555555556,11.519097222222223,0)" xlink:href="#aJ"/><use transform="matrix(0.008680555555555556,0,0,0.008680555555555556,18.32465277777778,0)" xlink:href="#aK"/><use transform="matrix(0.008680555555555556,0,0,0.008680555555555556,28.914930555555557,0)" xlink:href="#aL"/><use transform="matrix(0.008680555555555556,0,0,0.008680555555555556,38.87152777777778,0)" xlink:href="#aK"/><use transform="matrix(0.008680555555555556,0,0,0.008680555555555556,49.46180555555556,0)" xlink:href="#aM"/><use transform="matrix(0.008680555555555556,0,0,0.008680555555555556,60.52951388888889,0)" xlink:href="#aN"/></g><path fill="#3a414a" d="M786 20C389 20 94-260 94-744c0-487 299-766 692-766 339 0 597 194 641 529h-309c-28-162-156-258-326-258-233 0-388 179-388 495 0 323 157 493 387 493 170 0 298-97 328-259h309c-34 277-266 530-642 530" id="aO"/><path fill="#3a414a" d="M537 19C279 19 81-185 81-557c0-382 206-575 454-575 190 0 278 113 318 202h10v-560h300V0H868v-179h-15C812-89 719 19 537 19zm92-241c153 0 240-134 240-336 0-203-86-334-240-334-158 0-240 138-240 334 0 197 84 336 240 336" id="aP"/><path fill="#3a414a" d="M128 0v-1118h300V0H128zm150-1264c-91 0-165-68-165-154 0-85 74-154 165-154 90 0 165 69 165 154 0 86-75 154-165 154" id="aQ"/><path fill="#3a414a" d="M440 22C227 22 68-92 68-313c0-250 202-322 422-343 195-21 271-24 271-105 0-95-63-149-175-149-116 0-187 57-211 129l-275-46c57-194 237-305 487-305 240 0 474 108 474 379V0H777v-155h-10C713-51 605 22 440 22zm85-211c140 0 238-93 238-211v-121c-37 26-156 42-222 51-111 16-185 59-185 149 0 87 70 132 169 132" id="aR"/><path fill="#3a414a" d="M428-1490V0H128v-1490h300" id="aS"/><g id="A"><use transform="matrix(0.008680555555555556,0,0,0.008680555555555556,0,0)" xlink:href="#aO"/><use transform="matrix(0.008680555555555556,0,0,0.008680555555555556,13.151041666666668,0)" xlink:href="#aJ"/><use transform="matrix(0.008680555555555556,0,0,0.008680555555555556,19.95659722222222,0)" xlink:href="#aK"/><use transform="matrix(0.008680555555555556,0,0,0.008680555555555556,30.546875,0)" xlink:href="#aP"/><use transform="matrix(0.008680555555555556,0,0,0.008680555555555556,41.75347222222222,0)" xlink:href="#aK"/><use transform="matrix(0.008680555555555556,0,0,0.008680555555555556,52.34375,0)" xlink:href="#aM"/><use transform="matrix(0.008680555555555556,0,0,0.008680555555555556,63.411458333333336,0)" xlink:href="#aN"/><use transform="matrix(0.008680555555555556,0,0,0.008680555555555556,69.921875,0)" xlink:href="#aQ"/><use transform="matrix(0.008680555555555556,0,0,0.008680555555555556,74.73958333333331,0)" xlink:href="#aR"/><use transform="matrix(0.008680555555555556,0,0,0.008680555555555556,85.06076388888889,0)" xlink:href="#aS"/></g><path fill="#3a414a" d="M428-647V0H128v-1490h294v586c65-146 175-228 341-228 232 0 385 159 385 421V0H847v-659c0-139-76-222-202-222-128 0-217 86-217 234" id="aT"/><path fill="#3a414a" d="M628 22C291 22 81-210 81-554c0-346 210-578 547-578 265 0 455 142 497 372l-279 52c-25-116-99-188-215-188-160 0-244 139-244 341 0 200 84 341 244 341 116 0 193-74 217-195l279 51C1085-123 896 22 628 22" id="aU"/><path fill="#3a414a" d="M128 0v-1490h300v802h17l366-430h347L740-633 1179 0H826L514-456l-86 97V0H128" id="aV"/><g id="B"><use transform="matrix(0.008680555555555556,0,0,0.008680555555555556,0,0)" xlink:href="#aO"/><use transform="matrix(0.008680555555555556,0,0,0.008680555555555556,13.151041666666668,0)" xlink:href="#aT"/><use transform="matrix(0.008680555555555556,0,0,0.008680555555555556,24.21875,0)" xlink:href="#aK"/><use transform="matrix(0.008680555555555556,0,0,0.008680555555555556,34.80902777777778,0)" xlink:href="#aU"/><use transform="matrix(0.008680555555555556,0,0,0.008680555555555556,45.26909722222222,0)" xlink:href="#aV"/></g><path fill="#3a414a" d="M75-1237v-253h1217v253H837V0H531v-1237H75" id="aW"/><path fill="#3a414a" d="M513 14c-232 0-385-159-385-421v-711h300v659c0 139 76 222 202 222 127 0 217-86 217-234v-647h301V0H864l-4-232C797-74 683 14 513 14" id="aX"/><g id="C"><use transform="matrix(0.008680555555555556,0,0,0.008680555555555556,0,0)" xlink:href="#aW"/><use transform="matrix(0.008680555555555556,0,0,0.008680555555555556,10.859375,0)" xlink:href="#aJ"/><use transform="matrix(0.008680555555555556,0,0,0.008680555555555556,18.098958333333336,0)" xlink:href="#aX"/><use transform="matrix(0.008680555555555556,0,0,0.008680555555555556,29.16666666666667,0)" xlink:href="#aL"/><use transform="matrix(0.008680555555555556,0,0,0.008680555555555556,39.12326388888889,0)" xlink:href="#aN"/></g><path fill="#3a414a" d="M789 20C394 20 94-260 94-744c0-487 300-766 695-766s695 279 695 766c0 485-300 764-695 764zm0-271c231 0 385-174 385-493 0-321-154-495-385-495s-385 175-385 495c0 319 154 493 385 493" id="aY"/><path fill="#3a414a" d="M440-1490V0H135v-1490h305" id="aZ"/><path fill="#3a414a" d="M659 0H135v-1490h529c448 0 721 280 721 744 0 466-273 746-726 746zM440-263h204c287 0 437-148 437-483 0-333-150-481-435-481H440v964" id="ba"/><g id="D"><use transform="matrix(0.008680555555555556,0,0,0.008680555555555556,0,0)" xlink:href="#aY"/><use transform="matrix(0.008680555555555556,0,0,0.008680555555555556,13.697916666666668,0)" xlink:href="#aZ"/><use transform="matrix(0.008680555555555556,0,0,0.008680555555555556,18.689236111111114,0)" xlink:href="#ba"/><use transform="matrix(0.008680555555555556,0,0,0.008680555555555556,31.527777777777782,0)" xlink:href="#aO"/></g><path fill="#3a414a" d="M628 22C291 22 81-210 81-554c0-346 210-578 547-578 336 0 547 232 547 578 0 344-211 576-547 576zm0-236c160 0 242-146 242-341 0-197-82-341-242-341S387-753 387-555c0 195 81 341 241 341" id="bb"/><g id="E"><use transform="matrix(0.008680555555555556,0,0,0.008680555555555556,0,0)" xlink:href="#aW"/><use transform="matrix(0.008680555555555556,0,0,0.008680555555555556,10.477430555555555,0)" xlink:href="#bb"/><use transform="matrix(0.008680555555555556,0,0,0.008680555555555556,21.380208333333336,0)" xlink:href="#aV"/><use transform="matrix(0.008680555555555556,0,0,0.008680555555555556,31.29340277777778,0)" xlink:href="#aK"/><use transform="matrix(0.008680555555555556,0,0,0.008680555555555556,41.88368055555556,0)" xlink:href="#aM"/></g></defs></g></svg>